<svg xmlns="http://www.w3.org/2000/svg" width="31.738" height="26.875" viewBox="0 0 31.738 26.875">
  <g id="_001-twitter-black-shape" data-name="001-twitter-black-shape" transform="translate(0 0)">
    <g id="Group_1" data-name="Group 1" transform="translate(0 0)">
      <path id="Path_8" data-name="Path 8" d="M30.8,45.445q-.235.069-.469.128c-.956.242-1.044-.077-.352-.78a6.38,6.38,0,0,0,.822-1.028c.533-.83.071-1.192-.837-.8q-.486.207-.986.375a4.125,4.125,0,0,1-3.095-.688,6.849,6.849,0,0,0-8.384.984,6.538,6.538,0,0,0-1.984,4.8,7.163,7.163,0,0,0,.044.781c.048.43-.676.741-1.653.6a18.769,18.769,0,0,1-6.023-1.92,19.313,19.313,0,0,1-5-3.674c-.69-.706-1.623-.645-1.881.308A6.8,6.8,0,0,0,.78,46.309,6.606,6.606,0,0,0,1.6,49.543a6.943,6.943,0,0,0,.955,1.343c.614.674.52,1.065-.335.826a11.014,11.014,0,0,1-1.481-.572v.042A6.552,6.552,0,0,0,2.281,55.5,6.75,6.75,0,0,0,4.49,57.263c.884.438,1.3.682.8.746a7.01,7.01,0,0,1-.9.058q-.306,0-.642-.028c-.354-.03-.417.707.119,1.535A6.79,6.79,0,0,0,5.5,61.311a6.636,6.636,0,0,0,2.184,1.1c.949.27,1.139.763.293,1.27a13.252,13.252,0,0,1-6.95,1.884q-.429,0-.82-.019c-.453-.022-.149.377.725.835a18.832,18.832,0,0,0,8.871,2.145,19.83,19.83,0,0,0,6.782-1.144,17.248,17.248,0,0,0,5.417-3.066,20.513,20.513,0,0,0,3.874-4.42,19.714,19.714,0,0,0,2.425-5.217,19.279,19.279,0,0,0,.8-5.449c0-.164,0-.311,0-.441-.005-.244.64-.9,1.359-1.578q.487-.457.93-.96C32.041,45.508,31.752,45.169,30.8,45.445Z" transform="translate(-0.003 -41.648)" fill="#fff"/>
    </g>
  </g>
</svg>
