<svg xmlns="http://www.w3.org/2000/svg" width="21.717" height="18.39" viewBox="0 0 21.717 18.39">
  <g id="_001-twitter-black-shape" data-name="001-twitter-black-shape" transform="translate(0 0)">
    <g id="Group_1" data-name="Group 1" transform="translate(0 0)">
      <path id="Path_8" data-name="Path 8" d="M21.079,44.246q-.161.047-.321.088c-.654.165-.715-.053-.241-.534a4.365,4.365,0,0,0,.562-.7c.365-.568.048-.816-.573-.55q-.332.142-.675.257a2.822,2.822,0,0,1-2.118-.471,4.686,4.686,0,0,0-5.737.673,4.473,4.473,0,0,0-1.358,3.283,4.9,4.9,0,0,0,.03.534c.033.294-.463.507-1.131.413A12.843,12.843,0,0,1,5.4,45.922,13.215,13.215,0,0,1,1.98,43.408c-.472-.483-1.111-.441-1.287.21a4.65,4.65,0,0,0-.158,1.219,4.52,4.52,0,0,0,.56,2.213,4.751,4.751,0,0,0,.653.919c.42.461.356.729-.229.565a7.538,7.538,0,0,1-1.013-.392v.029a4.483,4.483,0,0,0,1.056,2.952,4.618,4.618,0,0,0,1.511,1.21c.605.3.887.467.549.511a4.8,4.8,0,0,1-.616.04q-.21,0-.439-.019c-.242-.021-.286.484.081,1.05A4.646,4.646,0,0,0,3.767,55.1a4.541,4.541,0,0,0,1.495.751c.649.185.78.522.2.869A9.068,9.068,0,0,1,.707,58.012q-.294,0-.561-.013c-.31-.015-.1.258.5.571a12.886,12.886,0,0,0,6.07,1.467,13.569,13.569,0,0,0,4.64-.783,11.8,11.8,0,0,0,3.706-2.1,14.036,14.036,0,0,0,2.651-3.024,13.489,13.489,0,0,0,1.659-3.57,13.192,13.192,0,0,0,.546-3.728c0-.112,0-.213,0-.3,0-.167.438-.618.93-1.08q.333-.313.637-.657C21.925,44.29,21.727,44.057,21.079,44.246Z" transform="translate(-0.003 -41.648)" fill="#4e2575"/>
    </g>
  </g>
</svg>
