<svg id="_002-facebook-letter-logo" data-name="002-facebook-letter-logo" xmlns="http://www.w3.org/2000/svg" width="14.835" height="31.918" viewBox="0 0 14.835 31.918">
  <g id="Group_2" data-name="Group 2" transform="translate(0)">
    <path id="Path_9" data-name="Path 9" d="M160.084,0h-3.325q-3.815,0-5.481,1.811a7.627,7.627,0,0,0-1.666,5.336v2.24a1.072,1.072,0,0,1-1.072,1.072h-1.149a1.072,1.072,0,0,0-1.072,1.072v3.357a1.072,1.072,0,0,0,1.072,1.072h1.149a1.072,1.072,0,0,1,1.072,1.072V30.846a1.072,1.072,0,0,0,1.072,1.072h4.461a1.072,1.072,0,0,0,1.072-1.072V17.031a1.072,1.072,0,0,1,1.072-1.072h2.253a1.217,1.217,0,0,0,1.184-1.066l.356-3.369a.944.944,0,0,0-.959-1.066h-2.834a1.072,1.072,0,0,1-1.072-1.072V7.709a6.019,6.019,0,0,1,.058-.959,1.867,1.867,0,0,1,.262-.668,1.068,1.068,0,0,1,.658-.455A4.691,4.691,0,0,1,158.4,5.5h1.678a1.072,1.072,0,0,0,1.072-1.072V1.072A1.071,1.071,0,0,0,160.084,0Z" transform="translate(-146.32)" fill="#fff"/>
  </g>
</svg>
