<svg id="_002-facebook-letter-logo" data-name="002-facebook-letter-logo" xmlns="http://www.w3.org/2000/svg" width="10.151" height="21.84" viewBox="0 0 10.151 21.84">
  <g id="Group_2" data-name="Group 2" transform="translate(0)">
    <path id="Path_9" data-name="Path 9" d="M155.738,0h-2.275a4.9,4.9,0,0,0-3.75,1.239,5.219,5.219,0,0,0-1.14,3.651V6.423a.733.733,0,0,1-.733.733h-.786a.733.733,0,0,0-.733.733v2.3a.733.733,0,0,0,.733.733h.786a.733.733,0,0,1,.733.733v9.453a.733.733,0,0,0,.733.733h3.052a.733.733,0,0,0,.733-.733V11.653a.733.733,0,0,1,.733-.733h1.541a.833.833,0,0,0,.81-.729l.243-2.305a.646.646,0,0,0-.656-.729h-1.939a.733.733,0,0,1-.733-.733V5.275a4.118,4.118,0,0,1,.04-.656,1.277,1.277,0,0,1,.179-.457.731.731,0,0,1,.451-.311,3.21,3.21,0,0,1,.828-.086h1.148a.733.733,0,0,0,.733-.733V.733A.733.733,0,0,0,155.738,0Z" transform="translate(-146.32)" fill="#4e2575"/>
  </g>
</svg>
