<svg id="_007-linkedin-1" data-name="007-linkedin-1" xmlns="http://www.w3.org/2000/svg" width="34.271" height="34.195" viewBox="0 0 34.271 34.195">
  <path id="XMLID_802_" d="M12.36,99.73H5.48a.553.553,0,0,0-.553.553v22.1a.553.553,0,0,0,.553.553h6.88a.553.553,0,0,0,.553-.553v-22.1A.553.553,0,0,0,12.36,99.73Z" transform="translate(-4.382 -88.742)" fill="#fff"/>
  <path id="XMLID_803_" d="M4.54.341A4.536,4.536,0,1,0,9.076,4.876,4.543,4.543,0,0,0,4.54.341Z" transform="translate(0 -0.341)" fill="#fff"/>
  <path id="XMLID_804_" d="M119.915,94.761A8.08,8.08,0,0,0,113.87,97.3V95.863a.553.553,0,0,0-.553-.553h-6.589a.553.553,0,0,0-.553.553v22.1a.553.553,0,0,0,.553.553h6.865a.553.553,0,0,0,.553-.553V107.03c0-3.685,1-5.121,3.57-5.121,2.8,0,3.02,2.3,3.02,5.31v10.746a.553.553,0,0,0,.553.553h6.867a.553.553,0,0,0,.553-.553V105.842C128.709,100.363,127.664,94.761,119.915,94.761Z" transform="translate(-94.438 -84.323)" fill="#fff"/>
</svg>
