<svg id="_007-linkedin-1" data-name="007-linkedin-1" xmlns="http://www.w3.org/2000/svg" width="23.45" height="23.398" viewBox="0 0 23.45 23.398">
  <path id="XMLID_802_" d="M10.013,99.73H5.305a.378.378,0,0,0-.378.378v15.123a.378.378,0,0,0,.378.378h4.708a.378.378,0,0,0,.378-.378V100.108A.378.378,0,0,0,10.013,99.73Z" transform="translate(-4.554 -92.212)" fill="#4e2575"/>
  <path id="XMLID_803_" d="M3.106.341a3.1,3.1,0,1,0,3.1,3.1A3.108,3.108,0,0,0,3.106.341Z" transform="translate(0 -0.341)" fill="#4e2575"/>
  <path id="XMLID_804_" d="M115.577,94.761a5.529,5.529,0,0,0-4.136,1.736v-.982a.378.378,0,0,0-.378-.378h-4.508a.378.378,0,0,0-.378.378v15.123a.378.378,0,0,0,.378.378h4.7a.378.378,0,0,0,.378-.378v-7.483c0-2.521.685-3.5,2.443-3.5,1.914,0,2.066,1.575,2.066,3.634v7.353a.378.378,0,0,0,.378.378h4.7a.378.378,0,0,0,.378-.378v-8.3C121.594,98.594,120.879,94.761,115.577,94.761Z" transform="translate(-98.144 -87.619)" fill="#4e2575"/>
</svg>
