<svg id="_010-instagram" data-name="010-instagram" xmlns="http://www.w3.org/2000/svg" width="29.888" height="29.888" viewBox="0 0 29.888 29.888">
  <g id="Group_4" data-name="Group 4" transform="translate(0)">
    <g id="Group_3" data-name="Group 3">
      <path id="Path_10" data-name="Path 10" d="M20.548,0H9.34A9.341,9.341,0,0,0,0,9.34V20.548a9.341,9.341,0,0,0,9.34,9.34H20.548a9.341,9.341,0,0,0,9.34-9.34V9.34A9.341,9.341,0,0,0,20.548,0Zm6.538,20.548a6.545,6.545,0,0,1-6.538,6.538H9.34A6.545,6.545,0,0,1,2.8,20.548V9.34A6.545,6.545,0,0,1,9.34,2.8H20.548A6.545,6.545,0,0,1,27.086,9.34Z" fill="#fff"/>
    </g>
  </g>
  <g id="Group_6" data-name="Group 6" transform="translate(7.472 7.472)">
    <g id="Group_5" data-name="Group 5">
      <path id="Path_11" data-name="Path 11" d="M135.472,128a7.472,7.472,0,1,0,7.472,7.472A7.472,7.472,0,0,0,135.472,128Zm0,12.142a4.67,4.67,0,1,1,4.67-4.67A4.677,4.677,0,0,1,135.472,140.142Z" transform="translate(-128 -128)" fill="#fff"/>
    </g>
  </g>
  <g id="Group_8" data-name="Group 8" transform="translate(21.981 5.916)">
    <g id="Group_7" data-name="Group 7">
      <ellipse id="Ellipse_8" data-name="Ellipse 8" cx="0.996" cy="0.996" rx="0.996" ry="0.996" fill="#fff"/>
    </g>
  </g>
</svg>
