<svg id="_010-instagram" data-name="010-instagram" xmlns="http://www.w3.org/2000/svg" width="20.451" height="20.451" viewBox="0 0 20.451 20.451">
  <g id="Group_4" data-name="Group 4" transform="translate(0)">
    <g id="Group_3" data-name="Group 3">
      <path id="Path_10" data-name="Path 10" d="M14.06,0H6.391A6.392,6.392,0,0,0,0,6.391V14.06a6.392,6.392,0,0,0,6.391,6.391H14.06a6.392,6.392,0,0,0,6.391-6.391V6.391A6.392,6.392,0,0,0,14.06,0Zm4.474,14.06a4.479,4.479,0,0,1-4.474,4.474H6.391A4.479,4.479,0,0,1,1.917,14.06V6.391A4.479,4.479,0,0,1,6.391,1.917H14.06a4.479,4.479,0,0,1,4.474,4.474Z" fill="#4e2575"/>
    </g>
  </g>
  <g id="Group_6" data-name="Group 6" transform="translate(5.113 5.113)">
    <g id="Group_5" data-name="Group 5">
      <path id="Path_11" data-name="Path 11" d="M133.113,128a5.113,5.113,0,1,0,5.113,5.113A5.113,5.113,0,0,0,133.113,128Zm0,8.308a3.2,3.2,0,1,1,3.2-3.2A3.2,3.2,0,0,1,133.113,136.308Z" transform="translate(-128 -128)" fill="#4e2575"/>
    </g>
  </g>
  <g id="Group_8" data-name="Group 8" transform="translate(15.04 4.048)">
    <g id="Group_7" data-name="Group 7">
      <ellipse id="Ellipse_8" data-name="Ellipse 8" cx="0.681" cy="0.681" rx="0.681" ry="0.681" fill="#4e2575"/>
    </g>
  </g>
</svg>
